<svg id="svg" xmlns="http://www.w3.org/2000/svg" xmlns:xlink="http://www.w3.org/1999/xlink" width="400" height="400" viewBox="0, 0, 400,400"><g id="svgg"><path id="path0" d="M190.409 46.680 C 184.119 62.900,178.744 76.787,178.465 77.539 C 177.989 78.821,179.354 78.906,200.391 78.906 C 218.008 78.906,222.746 78.697,222.464 77.930 C 222.267 77.393,217.630 63.506,212.159 47.070 C 206.689 30.635,202.131 17.188,202.030 17.188 C 201.929 17.188,196.699 30.459,190.409 46.680 M72.656 70.185 C 72.656 71.007,98.158 128.887,98.806 129.535 C 99.067 129.796,106.371 122.921,115.037 114.255 C 123.702 105.590,130.631 98.349,130.435 98.165 C 128.365 96.218,72.656 69.241,72.656 70.185 M300.391 86.066 C 284.922 93.825,272.106 100.323,271.911 100.506 C 271.534 100.860,302.421 132.031,303.149 132.031 C 303.468 132.031,327.063 78.983,329.471 72.852 C 330.123 71.193,329.298 71.568,300.391 86.066 M194.922 108.316 C 131.823 113.896,91.663 172.243,110.307 231.250 C 135.683 311.568,246.785 320.501,284.766 245.277 C 317.220 180.999,265.449 102.079,194.922 108.316 M47.750 190.657 C 31.259 196.194,17.648 200.842,17.504 200.986 C 17.312 201.178,62.380 218.944,77.539 224.652 C 78.821 225.135,78.906 223.778,78.906 202.818 C 78.906 190.526,78.643 180.496,78.320 180.530 C 77.998 180.563,64.241 185.121,47.750 190.657 M321.094 202.651 C 321.094 214.943,321.226 225.000,321.389 225.000 C 321.796 225.000,382.363 201.443,382.666 201.167 C 382.800 201.044,369.441 196.461,352.979 190.982 C 336.516 185.503,322.607 180.858,322.070 180.661 C 321.303 180.379,321.094 185.101,321.094 202.651 M285.563 285.140 C 276.218 294.494,270.272 301.012,270.726 301.406 C 272.123 302.615,329.717 327.575,330.138 327.154 C 330.586 326.706,302.230 269.531,301.560 269.531 C 301.339 269.531,294.140 276.555,285.563 285.140 M86.085 300.478 C 78.223 316.210,71.936 329.227,72.114 329.405 C 72.408 329.700,131.173 304.183,131.995 303.403 C 132.363 303.055,101.496 271.875,100.784 271.875 C 100.562 271.875,93.948 284.747,86.085 300.478 M178.125 321.420 C 178.125 321.878,201.646 382.367,201.941 382.666 C 202.073 382.800,206.664 369.441,212.143 352.979 C 217.622 336.516,222.267 322.607,222.464 322.070 C 222.746 321.303,218.024 321.094,200.474 321.094 C 188.182 321.094,178.125 321.241,178.125 321.420 " stroke="none" fill="#000000" fill-rule="evenodd"></path></g></svg>